<mxfile host="app.diagrams.net" modified="2024-04-28T14:17:15.193Z" agent="Mozilla/5.0 (X11; Ubuntu; Linux x86_64; rv:125.0) Gecko/20100101 Firefox/125.0" etag="mEvpkicrtlEqaeL9bjm-" version="24.2.7" type="device">
  <diagram id="KdCrRrIsqHHysakkYIEn" name="Page-1">
    <mxGraphModel dx="1938" dy="1096" grid="1" gridSize="10" guides="1" tooltips="1" connect="1" arrows="1" fold="1" page="1" pageScale="1" pageWidth="827" pageHeight="1169" math="0" shadow="0">
      <root>
        <mxCell id="0" />
        <mxCell id="1" parent="0" />
        <mxCell id="ht_Mzunb_tVLJNK0aL3s-14" value="STATE_IDLE" style="swimlane;fontStyle=0;childLayout=stackLayout;horizontal=1;startSize=26;horizontalStack=0;resizeParent=1;resizeParentMax=0;resizeLast=0;collapsible=1;marginBottom=0;align=center;fontSize=14;" parent="1" vertex="1">
          <mxGeometry x="710" y="280" width="203" height="100" as="geometry" />
        </mxCell>
        <mxCell id="ht_Mzunb_tVLJNK0aL3s-20" value="" style="endArrow=classic;html=1;rounded=0;strokeColor=default;jumpStyle=none;entryX=1.008;entryY=0.692;entryDx=0;entryDy=0;entryPerimeter=0;" parent="ht_Mzunb_tVLJNK0aL3s-14" edge="1" target="Ta5nCSjJ5rsA6mGrivYZ-2">
          <mxGeometry width="50" height="50" relative="1" as="geometry">
            <mxPoint x="-2" y="67" as="sourcePoint" />
            <mxPoint x="-230" y="65.92000000000007" as="targetPoint" />
          </mxGeometry>
        </mxCell>
        <mxCell id="ht_Mzunb_tVLJNK0aL3s-21" value="&lt;font style=&quot;font-size: 11px;&quot;&gt;received PING message&lt;br&gt;&lt;/font&gt;" style="edgeLabel;html=1;align=center;verticalAlign=middle;resizable=0;points=[];" parent="ht_Mzunb_tVLJNK0aL3s-20" vertex="1" connectable="0">
          <mxGeometry x="-0.0572" y="1" relative="1" as="geometry">
            <mxPoint x="2" y="-2" as="offset" />
          </mxGeometry>
        </mxCell>
        <mxCell id="ht_Mzunb_tVLJNK0aL3s-15" value="/* Initial state */" style="text;strokeColor=none;fillColor=none;spacingLeft=4;spacingRight=4;overflow=hidden;rotatable=0;points=[[0,0.5],[1,0.5]];portConstraint=eastwest;fontSize=12;" parent="ht_Mzunb_tVLJNK0aL3s-14" vertex="1">
          <mxGeometry y="26" width="203" height="74" as="geometry" />
        </mxCell>
        <mxCell id="ht_Mzunb_tVLJNK0aL3s-25" value="" style="endArrow=classic;html=1;rounded=0;strokeColor=default;jumpStyle=none;entryX=0.495;entryY=-0.001;entryDx=0;entryDy=0;entryPerimeter=0;" parent="1" target="ht_Mzunb_tVLJNK0aL3s-14" edge="1">
          <mxGeometry width="50" height="50" relative="1" as="geometry">
            <mxPoint x="1280" y="278" as="sourcePoint" />
            <mxPoint x="790" y="278" as="targetPoint" />
            <Array as="points">
              <mxPoint x="1280" y="220" />
              <mxPoint x="810" y="220" />
            </Array>
          </mxGeometry>
        </mxCell>
        <mxCell id="ht_Mzunb_tVLJNK0aL3s-26" value="RANGE_TIMEOUT_MS expires" style="edgeLabel;html=1;align=center;verticalAlign=middle;resizable=0;points=[];" parent="1" vertex="1" connectable="0">
          <mxGeometry x="1030.0007680252165" y="220.00466019562575" as="geometry">
            <mxPoint x="6" as="offset" />
          </mxGeometry>
        </mxCell>
        <mxCell id="ht_Mzunb_tVLJNK0aL3s-35" value="STATE_RANGE" style="swimlane;fontStyle=0;childLayout=stackLayout;horizontal=1;startSize=26;horizontalStack=0;resizeParent=1;resizeParentMax=0;resizeLast=0;collapsible=1;marginBottom=0;align=center;fontSize=14;" parent="1" vertex="1">
          <mxGeometry x="1170" y="280" width="190" height="100" as="geometry" />
        </mxCell>
        <mxCell id="ht_Mzunb_tVLJNK0aL3s-36" value="/*&#xa;*Â &#xa;*/" style="text;strokeColor=none;fillColor=none;spacingLeft=4;spacingRight=4;overflow=hidden;rotatable=0;points=[[0,0.5],[1,0.5]];portConstraint=eastwest;fontSize=12;" parent="ht_Mzunb_tVLJNK0aL3s-35" vertex="1">
          <mxGeometry y="26" width="190" height="74" as="geometry" />
        </mxCell>
        <mxCell id="ht_Mzunb_tVLJNK0aL3s-43" value="" style="endArrow=classic;html=1;rounded=0;strokeColor=default;jumpStyle=none;exitX=1;exitY=0.5;exitDx=0;exitDy=0;" parent="1" source="ht_Mzunb_tVLJNK0aL3s-15" edge="1">
          <mxGeometry width="50" height="50" relative="1" as="geometry">
            <mxPoint x="280" y="740" as="sourcePoint" />
            <mxPoint x="1170" y="343" as="targetPoint" />
            <Array as="points" />
          </mxGeometry>
        </mxCell>
        <mxCell id="ht_Mzunb_tVLJNK0aL3s-44" value="&lt;font style=&quot;font-size: 11px;&quot;&gt;received POLL message&lt;br&gt;record poll received time&lt;br&gt;transmitPollAck()&lt;/font&gt;" style="edgeLabel;html=1;align=center;verticalAlign=middle;resizable=0;points=[];" parent="ht_Mzunb_tVLJNK0aL3s-43" vertex="1" connectable="0">
          <mxGeometry x="-0.0227" relative="1" as="geometry">
            <mxPoint x="-2" y="-2" as="offset" />
          </mxGeometry>
        </mxCell>
        <mxCell id="ht_Mzunb_tVLJNK0aL3s-61" value="" style="endArrow=classic;html=1;rounded=0;strokeColor=default;jumpStyle=none;" parent="1" edge="1">
          <mxGeometry width="50" height="50" relative="1" as="geometry">
            <mxPoint x="1280" y="381" as="sourcePoint" />
            <mxPoint x="810" y="381" as="targetPoint" />
            <Array as="points">
              <mxPoint x="1280" y="430" />
              <mxPoint x="810" y="430" />
            </Array>
          </mxGeometry>
        </mxCell>
        <mxCell id="ht_Mzunb_tVLJNK0aL3s-62" value="&lt;font style=&quot;font-size: 11px;&quot;&gt;record range received time&lt;br&gt;&lt;font style=&quot;font-size: 11px;&quot;&gt;transmitRangeReport()&lt;/font&gt;&lt;br&gt;&lt;/font&gt;" style="edgeLabel;html=1;align=center;verticalAlign=middle;resizable=0;points=[];fontSize=9;" parent="ht_Mzunb_tVLJNK0aL3s-61" vertex="1" connectable="0">
          <mxGeometry x="0.0493" y="1" relative="1" as="geometry">
            <mxPoint as="offset" />
          </mxGeometry>
        </mxCell>
        <mxCell id="Ta5nCSjJ5rsA6mGrivYZ-1" value="STATE_PENDING_PONG" style="swimlane;fontStyle=0;childLayout=stackLayout;horizontal=1;startSize=26;horizontalStack=0;resizeParent=1;resizeParentMax=0;resizeLast=0;collapsible=1;marginBottom=0;align=center;fontSize=14;" vertex="1" parent="1">
          <mxGeometry x="274" y="280" width="280" height="86" as="geometry" />
        </mxCell>
        <mxCell id="Ta5nCSjJ5rsA6mGrivYZ-2" value="/*&#xa;* delay for random(0, PONG_TIMEOUT_MS - 10)&#xa;*/" style="text;strokeColor=none;fillColor=none;spacingLeft=4;spacingRight=4;overflow=hidden;rotatable=0;points=[[0,0.5],[1,0.5]];portConstraint=eastwest;fontSize=12;" vertex="1" parent="Ta5nCSjJ5rsA6mGrivYZ-1">
          <mxGeometry y="26" width="280" height="60" as="geometry" />
        </mxCell>
        <mxCell id="Ta5nCSjJ5rsA6mGrivYZ-3" value="" style="endArrow=classic;html=1;rounded=0;strokeColor=default;jumpStyle=none;exitX=1.004;exitY=0.217;exitDx=0;exitDy=0;exitPerimeter=0;" edge="1" parent="1" source="Ta5nCSjJ5rsA6mGrivYZ-2">
          <mxGeometry width="50" height="50" relative="1" as="geometry">
            <mxPoint x="718" y="370" as="sourcePoint" />
            <mxPoint x="710" y="320" as="targetPoint" />
          </mxGeometry>
        </mxCell>
        <mxCell id="Ta5nCSjJ5rsA6mGrivYZ-4" value="&lt;font style=&quot;font-size: 11px;&quot;&gt;&lt;br&gt;transmitPong()&lt;/font&gt;" style="edgeLabel;html=1;align=center;verticalAlign=middle;resizable=0;points=[];" vertex="1" connectable="0" parent="Ta5nCSjJ5rsA6mGrivYZ-3">
          <mxGeometry x="-0.0572" y="1" relative="1" as="geometry">
            <mxPoint x="11" y="-5" as="offset" />
          </mxGeometry>
        </mxCell>
      </root>
    </mxGraphModel>
  </diagram>
</mxfile>
